<svg xmlns="http://www.w3.org/2000/svg" width="333.662" height="96.447" viewBox="0 0 333.662 96.447">
  <g id="Akili_Logo" data-name="Akili Logo" transform="translate(-33.702 -53.7)">
    <g id="Group_90" data-name="Group 90" transform="translate(33.702 132.41)">
      <text id="FOUNDATION" transform="translate(0 14.737)" font-size="16" font-family="ArialNarrow, Arial" letter-spacing="0.783em" style="isolation: isolate"><tspan x="0" y="0">FOUNDATION</tspan></text>
    </g>
    <g id="Group_94" data-name="Group 94" transform="translate(275.564 75.144)">
      <g id="Group_91" data-name="Group 91" style="isolation: isolate">
        <path id="Path_68" data-name="Path 68" d="M563.8,106.677a6.078,6.078,0,0,1,1.506-4.38,5.123,5.123,0,0,1,3.878-1.6,5.114,5.114,0,0,1,4.7,2.783,6.362,6.362,0,0,1,.639,3.011,6.694,6.694,0,0,1-.684,3.057,4.505,4.505,0,0,1-1.962,2.053,5.667,5.667,0,0,1-2.738.684,5.368,5.368,0,0,1-2.829-.776,4.653,4.653,0,0,1-1.871-2.1A6.342,6.342,0,0,1,563.8,106.677Zm1.506,0a4.449,4.449,0,0,0,1.095,3.194,3.623,3.623,0,0,0,2.738,1.186,3.554,3.554,0,0,0,2.738-1.186,4.95,4.95,0,0,0,1.1-3.331,5.507,5.507,0,0,0-.456-2.373,3.892,3.892,0,0,0-1.369-1.6,3.42,3.42,0,0,0-2.008-.548,3.684,3.684,0,0,0-2.692,1.1A4.816,4.816,0,0,0,565.306,106.677Z" transform="translate(-563.8 -100.7)" fill="#f80300"/>
        <path id="Path_69" data-name="Path 69" d="M591.1,119.006V107.782h1.232v1.049a2.7,2.7,0,0,1,1-.913,3.029,3.029,0,0,1,1.369-.319,3.083,3.083,0,0,1,1.825.548,3.576,3.576,0,0,1,1.186,1.506,5.445,5.445,0,0,1,.411,2.144,5.024,5.024,0,0,1-.456,2.236,3.618,3.618,0,0,1-1.277,1.551,3.255,3.255,0,0,1-1.779.548,2.716,2.716,0,0,1-1.232-.274,2.931,2.931,0,0,1-.913-.73V119.1H591.1Zm1.232-7.118a3.632,3.632,0,0,0,.639,2.327,1.941,1.941,0,0,0,1.551.73,1.988,1.988,0,0,0,1.551-.776,3.568,3.568,0,0,0,.639-2.418,3.632,3.632,0,0,0-.639-2.327,1.9,1.9,0,0,0-1.506-.776,1.971,1.971,0,0,0-1.551.821A3.726,3.726,0,0,0,592.332,111.889Z" transform="translate(-578.644 -104.452)" fill="#f80300"/>
        <path id="Path_70" data-name="Path 70" d="M610.2,119.006V107.782h1.232v1.049a2.7,2.7,0,0,1,1-.913,3.03,3.03,0,0,1,1.369-.319,3.083,3.083,0,0,1,1.825.548,3.576,3.576,0,0,1,1.186,1.506,5.444,5.444,0,0,1,.411,2.144,5.024,5.024,0,0,1-.456,2.236,3.616,3.616,0,0,1-1.278,1.551,3.255,3.255,0,0,1-1.779.548,2.717,2.717,0,0,1-1.232-.274,2.932,2.932,0,0,1-.912-.73V119.1H610.2Zm1.232-7.118a3.632,3.632,0,0,0,.639,2.327,1.941,1.941,0,0,0,1.551.73,1.989,1.989,0,0,0,1.551-.776,3.568,3.568,0,0,0,.639-2.418,3.632,3.632,0,0,0-.639-2.327,1.9,1.9,0,0,0-1.506-.776,1.971,1.971,0,0,0-1.551.821A3.725,3.725,0,0,0,611.432,111.889Z" transform="translate(-589.03 -104.452)" fill="#f80300"/>
        <path id="Path_71" data-name="Path 71" d="M628.2,111.843a4.208,4.208,0,0,1,1.232-3.331,3.807,3.807,0,0,1,2.555-.913,3.714,3.714,0,0,1,2.737,1.1,4.046,4.046,0,0,1,1.049,3.011,5.274,5.274,0,0,1-.456,2.464,3.7,3.7,0,0,1-1.369,1.414,4.045,4.045,0,0,1-1.962.5,3.574,3.574,0,0,1-2.738-1.1A4.244,4.244,0,0,1,628.2,111.843Zm1.414,0a3.376,3.376,0,0,0,.684,2.327,2.216,2.216,0,0,0,1.734.776,2.19,2.19,0,0,0,1.688-.776,3.507,3.507,0,0,0,.684-2.373,3.325,3.325,0,0,0-.684-2.281,2.19,2.19,0,0,0-1.688-.776,2.284,2.284,0,0,0-1.734.776A3.376,3.376,0,0,0,629.614,111.843Z" transform="translate(-598.817 -104.452)" fill="#f80300"/>
        <path id="Path_72" data-name="Path 72" d="M648.3,115.9v-8.121h1.232v1.232a3.159,3.159,0,0,1,.867-1.141,1.5,1.5,0,0,1,.867-.274,2.581,2.581,0,0,1,1.414.456l-.456,1.278a2.156,2.156,0,0,0-1-.319,1.274,1.274,0,0,0-.821.274,1.363,1.363,0,0,0-.5.776,5.861,5.861,0,0,0-.228,1.6V115.9Z" transform="translate(-609.746 -104.452)" fill="#f80300"/>
        <path id="Path_73" data-name="Path 73" d="M661.887,111.518l.182,1.232a4.422,4.422,0,0,1-1.049.137,2.514,2.514,0,0,1-1.141-.228,1.346,1.346,0,0,1-.593-.639,5.7,5.7,0,0,1-.183-1.643v-4.654h-1v-1.1h1v-2.008l1.369-.821v2.829h1.369v1.049h-1.369v4.745a2.476,2.476,0,0,0,.091.776,1.214,1.214,0,0,0,.228.274,1.146,1.146,0,0,0,.456.091C661.431,111.564,661.613,111.518,661.887,111.518Z" transform="translate(-615.075 -101.298)" fill="#f80300"/>
        <path id="Path_74" data-name="Path 74" d="M674.693,116.121v-1.186a2.992,2.992,0,0,1-2.555,1.369,3.121,3.121,0,0,1-1.323-.274,2.092,2.092,0,0,1-.913-.684,2.46,2.46,0,0,1-.411-1,7.756,7.756,0,0,1-.091-1.278v-5.019h1.369v4.517a9.131,9.131,0,0,0,.091,1.46,1.583,1.583,0,0,0,.548.867,1.6,1.6,0,0,0,1.049.319,1.96,1.96,0,0,0,1.141-.319,2.026,2.026,0,0,0,.776-.867,4.744,4.744,0,0,0,.228-1.6V108h1.369v8.121Z" transform="translate(-621.219 -104.669)" fill="#f80300"/>
        <path id="Path_75" data-name="Path 75" d="M688.4,115.9v-8.121h1.232v1.141a2.872,2.872,0,0,1,2.6-1.323,3.333,3.333,0,0,1,1.369.274,2.092,2.092,0,0,1,.913.684,2.46,2.46,0,0,1,.411,1,7.972,7.972,0,0,1,.091,1.323v4.973h-1.369v-4.928a3.294,3.294,0,0,0-.182-1.278,1.432,1.432,0,0,0-1.506-.913,2.186,2.186,0,0,0-1.506.548,2.808,2.808,0,0,0-.639,2.1v4.426H688.4Z" transform="translate(-631.55 -104.452)" fill="#f80300"/>
        <path id="Path_76" data-name="Path 76" d="M707.5,102.8v-1.6h1.369v1.6Zm0,9.627V104.3h1.369v8.121Z" transform="translate(-641.935 -100.972)" fill="#f80300"/>
        <path id="Path_77" data-name="Path 77" d="M717.187,111.518l.182,1.232a4.421,4.421,0,0,1-1.049.137,2.514,2.514,0,0,1-1.141-.228,1.346,1.346,0,0,1-.593-.639,5.7,5.7,0,0,1-.182-1.643v-4.654h-1v-1.1h1v-2.008l1.369-.821v2.829h1.369v1.049h-1.369v4.745a2.473,2.473,0,0,0,.091.776,1.212,1.212,0,0,0,.228.274,1.146,1.146,0,0,0,.456.091C716.731,111.564,716.959,111.518,717.187,111.518Z" transform="translate(-645.143 -101.298)" fill="#f80300"/>
        <path id="Path_78" data-name="Path 78" d="M724.7,102.8v-1.6h1.369v1.6Zm0,9.627V104.3h1.369v8.121Z" transform="translate(-651.288 -100.972)" fill="#f80300"/>
        <path id="Path_79" data-name="Path 79" d="M737.323,113.2l1.414.182a3.519,3.519,0,0,1-1.232,1.916,4.243,4.243,0,0,1-5.156-.411,4.356,4.356,0,0,1-1.049-3.057,4.641,4.641,0,0,1,1.049-3.194,3.8,3.8,0,0,1,5.384-.046,4.4,4.4,0,0,1,1.049,3.1v.365h-6.068a3.02,3.02,0,0,0,.776,2.053,2.309,2.309,0,0,0,1.688.73,2.04,2.04,0,0,0,1.278-.411A2.594,2.594,0,0,0,737.323,113.2Zm-4.517-2.19h4.517a2.838,2.838,0,0,0-.5-1.551,2.052,2.052,0,0,0-1.688-.776,2.28,2.28,0,0,0-1.6.639A2.328,2.328,0,0,0,732.806,111.013Z" transform="translate(-654.876 -104.397)" fill="#f80300"/>
        <path id="Path_80" data-name="Path 80" d="M750.2,113.486l1.369-.228a1.8,1.8,0,0,0,.639,1.232,2.322,2.322,0,0,0,1.46.456,2.384,2.384,0,0,0,1.414-.365,1.122,1.122,0,0,0,.456-.913.822.822,0,0,0-.411-.73,4.889,4.889,0,0,0-1.415-.456,18.023,18.023,0,0,1-2.1-.639,1.817,1.817,0,0,1-.867-.776,2.2,2.2,0,0,1-.319-1.1,2.489,2.489,0,0,1,.228-1,2.793,2.793,0,0,1,.684-.776,5.194,5.194,0,0,1,.867-.411,4.959,4.959,0,0,1,1.186-.183,4.853,4.853,0,0,1,1.688.274,2.064,2.064,0,0,1,1.049.73,3,3,0,0,1,.456,1.278l-1.323.182a1.3,1.3,0,0,0-.547-.958,1.979,1.979,0,0,0-1.232-.365,2.162,2.162,0,0,0-1.369.319.939.939,0,0,0-.411.73.761.761,0,0,0,.183.5,1.042,1.042,0,0,0,.548.365c.137.046.547.182,1.232.365a19.669,19.669,0,0,1,2.053.639,2.4,2.4,0,0,1,.912.73,2.011,2.011,0,0,1,.319,1.186,2.135,2.135,0,0,1-.411,1.278,2.634,2.634,0,0,1-1.141.958,4.2,4.2,0,0,1-1.734.319,4.02,4.02,0,0,1-2.418-.639A3.435,3.435,0,0,1,750.2,113.486Z" transform="translate(-665.153 -104.452)" fill="#f80300"/>
      </g>
      <g id="Group_92" data-name="Group 92" transform="translate(0.274 19.3)" style="isolation: isolate">
        <path id="Path_81" data-name="Path 81" d="M564.4,144.6V143h1.369v1.6Zm0,9.627V146.1h1.369v8.121Z" transform="translate(-564.4 -143)" fill="#f80300"/>
        <path id="Path_82" data-name="Path 82" d="M572,157.7v-8.121h1.232v1.141a2.872,2.872,0,0,1,2.6-1.323,3.333,3.333,0,0,1,1.369.274,2.092,2.092,0,0,1,.913.684,2.461,2.461,0,0,1,.411,1,7.966,7.966,0,0,1,.091,1.323v4.973h-1.369v-4.928a3.3,3.3,0,0,0-.182-1.278,1.432,1.432,0,0,0-1.506-.913,2.186,2.186,0,0,0-1.506.548,2.808,2.808,0,0,0-.639,2.1v4.426H572Z" transform="translate(-568.532 -146.48)" fill="#f80300"/>
        <path id="Path_83" data-name="Path 83" d="M599.63,161.178l-.137-1.278a2.781,2.781,0,0,0,.776.137,1.6,1.6,0,0,0,.73-.137,1.294,1.294,0,0,0,.456-.411,5.086,5.086,0,0,0,.411-1,1.654,1.654,0,0,1,.137-.319l-3.1-8.121h1.506l1.688,4.7c.228.593.411,1.232.593,1.871.137-.639.365-1.232.547-1.871L604.968,150h1.369l-3.1,8.258a11.766,11.766,0,0,1-.776,1.825,3.131,3.131,0,0,1-.821,1,1.868,1.868,0,0,1-1.141.319C600.269,161.361,599.949,161.27,599.63,161.178Z" transform="translate(-583.159 -146.806)" fill="#f80300"/>
        <path id="Path_84" data-name="Path 84" d="M616.7,153.643a4.208,4.208,0,0,1,1.232-3.331,3.807,3.807,0,0,1,2.555-.913,3.715,3.715,0,0,1,2.738,1.1,4.047,4.047,0,0,1,1.049,3.011,5.274,5.274,0,0,1-.456,2.464,3.7,3.7,0,0,1-1.369,1.414,4.044,4.044,0,0,1-1.962.5,3.574,3.574,0,0,1-2.737-1.1A4.441,4.441,0,0,1,616.7,153.643Zm1.414,0a3.376,3.376,0,0,0,.684,2.327,2.217,2.217,0,0,0,1.734.776,2.19,2.19,0,0,0,1.688-.776,3.507,3.507,0,0,0,.684-2.373,3.325,3.325,0,0,0-.684-2.281,2.19,2.19,0,0,0-1.688-.776,2.285,2.285,0,0,0-1.734.776A3.539,3.539,0,0,0,618.114,153.643Z" transform="translate(-592.837 -146.48)" fill="#f80300"/>
        <path id="Path_85" data-name="Path 85" d="M642.293,157.976v-1.186a2.992,2.992,0,0,1-2.555,1.369,3.12,3.12,0,0,1-1.323-.274,2.092,2.092,0,0,1-.913-.684,2.46,2.46,0,0,1-.411-1,7.749,7.749,0,0,1-.091-1.278V149.9h1.369v4.517a9.121,9.121,0,0,0,.091,1.46,1.583,1.583,0,0,0,.547.867,1.6,1.6,0,0,0,1.049.319,1.96,1.96,0,0,0,1.141-.319,1.773,1.773,0,0,0,.776-.867,4.746,4.746,0,0,0,.228-1.6v-4.334h1.369v8.121h-1.278Z" transform="translate(-603.876 -146.752)" fill="#f80300"/>
        <path id="Path_86" data-name="Path 86" d="M656,157.7v-8.121h1.232v1.141a2.872,2.872,0,0,1,2.6-1.323,3.332,3.332,0,0,1,1.369.274,2.091,2.091,0,0,1,.913.684,2.461,2.461,0,0,1,.411,1,7.957,7.957,0,0,1,.091,1.323v4.973h-1.369v-4.928a3.3,3.3,0,0,0-.182-1.278,1.431,1.431,0,0,0-1.506-.913,2.185,2.185,0,0,0-1.506.548,2.807,2.807,0,0,0-.639,2.1v4.426H656Z" transform="translate(-614.207 -146.48)" fill="#f80300"/>
        <path id="Path_87" data-name="Path 87" d="M674.119,158.388l1.323.183a1.348,1.348,0,0,0,.456.913,2.174,2.174,0,0,0,1.414.365,2.544,2.544,0,0,0,1.46-.365,1.714,1.714,0,0,0,.684-1.049,7.965,7.965,0,0,0,.091-1.779,2.761,2.761,0,0,1-2.236,1.049,3.209,3.209,0,0,1-2.6-1.186,4.837,4.837,0,0,1-.912-2.92,5.445,5.445,0,0,1,.411-2.144,3.346,3.346,0,0,1,1.232-1.506,3.226,3.226,0,0,1,1.871-.548,2.915,2.915,0,0,1,2.373,1.141v-.958h1.278v7.026a7.376,7.376,0,0,1-.365,2.692,2.686,2.686,0,0,1-1.232,1.232,4.688,4.688,0,0,1-4.38-.182A2.239,2.239,0,0,1,674.119,158.388Zm1.141-4.882a3.632,3.632,0,0,0,.639,2.327,1.967,1.967,0,0,0,1.6.73,2.03,2.03,0,0,0,1.6-.73,3.49,3.49,0,0,0,.639-2.281,3.2,3.2,0,0,0-.684-2.236,2.076,2.076,0,0,0-1.6-.776,1.941,1.941,0,0,0-1.551.73A3.617,3.617,0,0,0,675.26,153.506Z" transform="translate(-623.885 -146.48)" fill="#f80300"/>
      </g>
      <g id="Group_93" data-name="Group 93" transform="translate(0.274 38.098)" style="isolation: isolate">
        <path id="Path_88" data-name="Path 88" d="M564.4,202.052v-11.27h1.232v1.049a2.7,2.7,0,0,1,1-.913A2.536,2.536,0,0,1,568,190.6a3.083,3.083,0,0,1,1.825.548,3.257,3.257,0,0,1,1.186,1.506,5.445,5.445,0,0,1,.411,2.144,5.026,5.026,0,0,1-.456,2.236,3.618,3.618,0,0,1-1.278,1.551,3.255,3.255,0,0,1-1.779.548,2.717,2.717,0,0,1-1.232-.274,2.93,2.93,0,0,1-.912-.73V202.1H564.4Zm1.232-7.163a3.632,3.632,0,0,0,.639,2.327,1.941,1.941,0,0,0,1.551.73,1.988,1.988,0,0,0,1.551-.776,3.833,3.833,0,0,0,.639-2.418,3.632,3.632,0,0,0-.639-2.327,1.9,1.9,0,0,0-1.506-.776,1.972,1.972,0,0,0-1.551.821A3.812,3.812,0,0,0,565.632,194.889Z" transform="translate(-564.4 -187.68)" fill="#f80300"/>
        <path id="Path_89" data-name="Path 89" d="M588.523,196.3l1.414.182a3.52,3.52,0,0,1-1.232,1.916,4.243,4.243,0,0,1-5.156-.411,4.357,4.357,0,0,1-1.049-3.057,4.641,4.641,0,0,1,1.049-3.194,3.8,3.8,0,0,1,5.384-.046,4.4,4.4,0,0,1,1.049,3.1v.365h-6.068a3.021,3.021,0,0,0,.776,2.053,2.309,2.309,0,0,0,1.688.73,2.04,2.04,0,0,0,1.278-.411A2.383,2.383,0,0,0,588.523,196.3Zm-4.517-2.236h4.517a2.839,2.839,0,0,0-.5-1.551,2.052,2.052,0,0,0-1.688-.776,2.28,2.28,0,0,0-1.6.639A2.411,2.411,0,0,0,584.006,194.068Z" transform="translate(-574.242 -187.68)" fill="#f80300"/>
        <path id="Path_90" data-name="Path 90" d="M601.5,194.843a4.208,4.208,0,0,1,1.232-3.331,3.806,3.806,0,0,1,2.555-.913,3.714,3.714,0,0,1,2.737,1.1,4.046,4.046,0,0,1,1.049,3.011,5.273,5.273,0,0,1-.456,2.464,3.7,3.7,0,0,1-1.369,1.414,4.044,4.044,0,0,1-1.962.5,3.574,3.574,0,0,1-2.738-1.1A4.244,4.244,0,0,1,601.5,194.843Zm1.414,0a3.376,3.376,0,0,0,.684,2.327,2.216,2.216,0,0,0,1.734.776,2.19,2.19,0,0,0,1.688-.776,3.508,3.508,0,0,0,.684-2.373,3.326,3.326,0,0,0-.684-2.281,2.19,2.19,0,0,0-1.688-.776,2.285,2.285,0,0,0-1.734.776A3.376,3.376,0,0,0,602.914,194.843Z" transform="translate(-584.573 -187.68)" fill="#f80300"/>
        <path id="Path_91" data-name="Path 91" d="M621.7,202.052v-11.27h1.232v1.049a2.7,2.7,0,0,1,1-.913,2.536,2.536,0,0,1,1.369-.319,3.083,3.083,0,0,1,1.825.548,3.256,3.256,0,0,1,1.186,1.506,5.444,5.444,0,0,1,.411,2.144,5.026,5.026,0,0,1-.456,2.236,3.617,3.617,0,0,1-1.278,1.551,3.254,3.254,0,0,1-1.779.548,2.716,2.716,0,0,1-1.232-.274,2.929,2.929,0,0,1-.913-.73V202.1H621.7Zm1.232-7.163a3.632,3.632,0,0,0,.639,2.327,1.942,1.942,0,0,0,1.551.73,1.988,1.988,0,0,0,1.551-.776,3.833,3.833,0,0,0,.639-2.418,3.632,3.632,0,0,0-.639-2.327,1.9,1.9,0,0,0-1.506-.776,1.971,1.971,0,0,0-1.551.821A3.812,3.812,0,0,0,622.932,194.889Z" transform="translate(-595.556 -187.68)" fill="#f80300"/>
        <path id="Path_92" data-name="Path 92" d="M640.7,195.424V184.2h1.369v11.224Z" transform="translate(-605.887 -184.2)" fill="#f80300"/>
        <path id="Path_93" data-name="Path 93" d="M653.423,196.3l1.414.182a3.52,3.52,0,0,1-1.232,1.916,4.243,4.243,0,0,1-5.156-.411,4.356,4.356,0,0,1-1.049-3.057,4.641,4.641,0,0,1,1.049-3.194,3.8,3.8,0,0,1,5.384-.046,4.4,4.4,0,0,1,1.049,3.1v.365h-6.068a3.021,3.021,0,0,0,.776,2.053,2.309,2.309,0,0,0,1.688.73,2.04,2.04,0,0,0,1.278-.411A2.383,2.383,0,0,0,653.423,196.3Zm-4.517-2.236h4.517a2.838,2.838,0,0,0-.5-1.551,2.052,2.052,0,0,0-1.688-.776,2.28,2.28,0,0,0-1.6.639A2.411,2.411,0,0,0,648.906,194.068Z" transform="translate(-609.53 -187.68)" fill="#f80300"/>
      </g>
    </g>
    <g id="Group_95" data-name="Group 95" transform="translate(263.259 55.206)">
      <rect id="Rectangle_1611" data-name="Rectangle 1611" width="2.802" height="92.347" transform="translate(0 0)"/>
    </g>
    <path id="Path_94" data-name="Path 94" d="M198.1,89.891,224.609,55.9H198.1Z" transform="translate(-89.39 -1.196)" fill="#f80300" fill-rule="evenodd"/>
    <path id="Path_95" data-name="Path 95" d="M198.1,143l26.509,33.991H198.1Z" transform="translate(-89.39 -48.556)" fill="#f80300" fill-rule="evenodd"/>
    <path id="Path_96" data-name="Path 96" d="M266.041,57.7,235.7,93.927l30.341,36.683Z" transform="translate(-109.834 -2.175)" fill="#f80300" fill-rule="evenodd"/>
    <rect id="Rectangle_1612" data-name="Rectangle 1612" width="15.285" height="54.341" transform="translate(165.743 74.095)" fill="#f80300"/>
    <rect id="Rectangle_1613" data-name="Rectangle 1613" width="15.285" height="13.779" transform="translate(165.743 53.7)" fill="#f80300"/>
    <rect id="Rectangle_1614" data-name="Rectangle 1614" width="15.285" height="54.341" transform="translate(225.65 74.095)" fill="#f80300"/>
    <rect id="Rectangle_1615" data-name="Rectangle 1615" width="15.285" height="13.779" transform="translate(225.65 53.7)" fill="#f80300"/>
    <rect id="Rectangle_1616" data-name="Rectangle 1616" width="15.513" height="74.827" transform="translate(194.943 53.7)" fill="#f80300"/>
    <rect id="Rectangle_1617" data-name="Rectangle 1617" width="9.216" height="4.334" transform="translate(95.159 90.748)" fill="#f80300"/>
    <path id="Path_97" data-name="Path 97" d="M65.9,53.7,35.7,129.9H54.452l8.943-27.832h8.213V95.585H65.4L76.261,64.559V129.9H91.82V53.7Z" transform="translate(-1.086 0)" fill="#f80300"/>
  </g>
</svg>
